<svg width="140" height="28" viewBox="0 0 140 28" fill="none" xmlns="http://www.w3.org/2000/svg">
<g clip-path="url(#clip0_1124_14)">
<path d="M16.2469 5.17728L8.12346 10.3418L16.2469 15.5063L8.12346 20.6709L0 15.4633L8.12346 10.2988L0 5.17728L8.12346 0.0127563L16.2469 5.17728ZM8.08025 22.3063L16.2037 17.1418L24.3272 22.3063L16.2037 27.4708L8.08025 22.3063ZM16.2469 15.4633L24.3704 10.2988L16.2469 5.17728L24.3272 0.0127563L32.4506 5.17728L24.3272 10.3418L32.4506 15.5063L24.3272 20.6709L16.2469 15.4633Z" fill="#272D38"/>
<path d="M38.8025 5.17726H45.3704C49.5617 5.17726 53.0185 7.58737 53.0185 13.0962V14.2582C53.0185 19.8101 49.7778 22.3063 45.5 22.3063H38.8025V5.17726ZM42.4753 8.27597V19.1645H45.2839C47.6605 19.1645 49.2593 17.6152 49.2593 14.1721V13.2683C49.2593 9.82533 47.5741 8.27597 45.1543 8.27597H42.4753ZM54.963 8.44812H57.9012L58.3765 11.676C58.9383 9.48103 60.3642 8.31901 62.9568 8.31901H63.8642V12.0203H62.3518C59.3704 12.0203 58.6358 13.0532 58.6358 15.9797V22.3493H55.0062V8.44812H54.963ZM64.5988 15.6785V15.2911C64.5988 10.643 67.5802 8.10382 71.642 8.10382C75.7901 8.10382 78.6852 10.643 78.6852 15.2911V15.6785C78.6852 20.2405 75.8765 22.6936 71.642 22.6936C67.1481 22.6506 64.5988 20.2405 64.5988 15.6785ZM74.9691 15.6354V15.2911C74.9691 12.7089 73.6728 11.1595 71.5988 11.1595C69.5679 11.1595 68.2284 12.5797 68.2284 15.2911V15.6354C68.2284 18.1316 69.5247 19.5519 71.5988 19.5519C73.6728 19.5088 74.9691 18.1316 74.9691 15.6354ZM80.5864 8.44812H83.6111L83.9568 11.0734C84.6914 9.30888 86.2469 8.10382 88.537 8.10382C92.0802 8.10382 94.4136 10.643 94.4136 15.3342V15.7215C94.4136 20.2835 91.821 22.6936 88.537 22.6936C86.3333 22.6936 84.821 21.7037 84.0864 20.1113V27.1265H80.5432L80.5864 8.44812ZM90.7407 15.6354V15.3342C90.7407 12.5797 89.3148 11.2025 87.4136 11.2025C85.3827 11.2025 84.0432 12.7519 84.0432 15.3342V15.5924C84.0432 18.0455 85.3395 19.5949 87.3704 19.5949C89.4444 19.5519 90.7407 18.2177 90.7407 15.6354ZM99.7716 19.767L99.4691 22.3063H96.358V3.80005H99.9012V10.9013C100.679 9.09369 102.235 8.10382 104.438 8.10382C107.765 8.14686 110.228 10.4279 110.228 15.0329V15.4633C110.228 20.0683 107.895 22.6936 104.352 22.6936C102.019 22.6506 100.506 21.5746 99.7716 19.767ZM106.512 15.4633V15.119C106.512 12.5797 105.13 11.1595 103.185 11.1595C101.198 11.1595 99.8148 12.7519 99.8148 15.162V15.4633C99.8148 18.0455 101.154 19.5519 103.142 19.5519C105.259 19.5519 106.512 18.2177 106.512 15.4633ZM111.784 15.6785V15.2911C111.784 10.643 114.765 8.10382 118.827 8.10382C122.975 8.10382 125.87 10.643 125.87 15.2911V15.6785C125.87 20.2405 123.019 22.6936 118.827 22.6936C114.333 22.6506 111.784 20.2405 111.784 15.6785ZM122.198 15.6354V15.2911C122.198 12.7089 120.901 11.1595 118.827 11.1595C116.796 11.1595 115.457 12.5797 115.457 15.2911V15.6354C115.457 18.1316 116.753 19.5519 118.827 19.5519C120.901 19.5088 122.198 18.1316 122.198 15.6354ZM130.623 15.119L125.741 8.44812H129.932L132.741 12.6228L135.593 8.44812H139.741L134.772 15.0759L140 22.3063H135.895L132.698 17.7012L129.586 22.3063H125.309L130.623 15.119Z" fill="#272D38"/>
</g>
<defs>
<clipPath id="clip0_1124_14">
<rect width="140" height="28" fill="white"/>
</clipPath>
</defs>
</svg>
