<svg width="106" height="27" viewBox="0 0 106 27" fill="none" xmlns="http://www.w3.org/2000/svg">
<path fill-rule="evenodd" clip-rule="evenodd" d="M33.9115 21.2594L35.2344 18.165C36.6633 19.2406 38.567 19.7997 40.4454 19.7997C41.8318 19.7997 42.7095 19.2619 42.7095 18.4467C42.6883 16.1676 34.4034 17.9516 34.3398 12.2366C34.3186 9.33433 36.8795 7.09785 40.509 7.09785C42.6671 7.09785 44.821 7.63563 46.3602 8.86058L45.1221 12.019C43.7144 11.1141 41.9633 10.4696 40.297 10.4696C39.1649 10.4696 38.4186 11.0074 38.4186 11.6946C38.4398 13.9311 46.7884 12.7061 46.8732 18.165C46.8732 21.1314 44.3758 23.2185 40.7888 23.2185C38.16 23.2142 35.7474 22.5911 33.9115 21.2594ZM84.711 17.0468C84.0495 18.2077 82.8114 19.0016 81.3783 19.0016C79.2626 19.0016 77.5581 17.2815 77.5581 15.156C77.5581 13.0305 79.2668 11.3105 81.3783 11.3105C82.8072 11.3105 84.0495 12.1043 84.711 13.2653L88.3616 11.2251C86.9963 8.77521 84.3675 7.09785 81.3783 7.09785C76.956 7.09785 73.369 10.7087 73.369 15.1603C73.369 19.6119 76.956 23.2227 81.3783 23.2227C84.3887 23.2227 86.9963 21.5667 88.3616 19.0955L84.711 17.0468ZM48.7091 0.409738H53.2798V22.9154H48.7091V0.409738ZM90.1551 0.409738V22.9154H94.7258V16.1633L100.149 22.9154H106L99.1015 14.8957L105.487 7.41369H99.8902L94.7216 13.6238V0.409738H90.1551Z" fill="#272D38"/>
<path d="M66.8606 17.0895C66.1991 18.1864 64.8338 19.0016 63.2947 19.0016C61.179 19.0016 59.4745 17.2815 59.4745 15.156C59.4745 13.0305 61.1832 11.3105 63.2947 11.3105C64.8338 11.3105 66.1991 12.1684 66.8606 13.2866V17.0895ZM66.8606 7.41796V9.24471C66.1143 7.97708 64.2572 7.09358 62.311 7.09358C58.2958 7.09358 55.137 10.6617 55.137 15.1347C55.137 19.6077 58.2958 23.2185 62.311 23.2185C64.253 23.2185 66.1101 22.3392 66.8606 21.0673V22.8941H71.4313V7.41796H66.8606Z" fill="#272D38"/>
<path fill-rule="evenodd" clip-rule="evenodd" d="M5.6603 17.0681C5.6603 18.6388 4.40102 19.9064 2.8407 19.9064C1.28038 19.9064 0.0211045 18.6345 0.0211045 17.0681C0.0211045 15.5017 1.28038 14.2298 2.8407 14.2298H5.6603V17.0681ZM7.06798 17.0681C7.06798 15.4975 8.32726 14.2298 9.88758 14.2298C11.4479 14.2298 12.7072 15.4975 12.7072 17.0681V24.1617C12.7072 25.7324 11.4479 27 9.88758 27C8.32726 27 7.06798 25.7324 7.06798 24.1617V17.0681Z" fill="#272D38"/>
<path fill-rule="evenodd" clip-rule="evenodd" d="M9.88768 5.67657C8.32736 5.67657 7.06808 4.40895 7.06808 2.83829C7.06808 1.26763 8.32736 0 9.88768 0C11.448 0 12.7073 1.26763 12.7073 2.83829V5.67657H9.88768ZM9.88768 7.11492C11.448 7.11492 12.7073 8.38255 12.7073 9.95321C12.7073 11.5239 11.448 12.7915 9.88768 12.7915H2.8196C1.25928 12.7915 0 11.5196 0 9.95321C0 8.38682 1.25928 7.11492 2.8196 7.11492H9.88768Z" fill="#272D38"/>
<path fill-rule="evenodd" clip-rule="evenodd" d="M21.183 9.95321C21.183 8.38255 22.4423 7.11492 24.0026 7.11492C25.563 7.11492 26.8222 8.38255 26.8222 9.95321C26.8222 11.5239 25.563 12.7915 24.0026 12.7915H21.183V9.95321ZM19.7754 9.95321C19.7754 11.5239 18.5161 12.7915 16.9558 12.7915C15.3954 12.7915 14.1362 11.5239 14.1362 9.95321V2.83829C14.1362 1.26763 15.3954 0 16.9558 0C18.5161 0 19.7754 1.26763 19.7754 2.83829V9.95321Z" fill="#272D38"/>
<path fill-rule="evenodd" clip-rule="evenodd" d="M16.9558 21.3234C18.5161 21.3234 19.7754 22.5911 19.7754 24.1617C19.7754 25.7324 18.5161 27 16.9558 27C15.3954 27 14.1362 25.7324 14.1362 24.1617V21.3234H16.9558ZM16.9558 19.9064C15.3954 19.9064 14.1362 18.6388 14.1362 17.0681C14.1362 15.4975 15.3954 14.2298 16.9558 14.2298H24.0238C25.5842 14.2298 26.8434 15.4975 26.8434 17.0681C26.8434 18.6388 25.5842 19.9064 24.0238 19.9064H16.9558Z" fill="#272D38"/>
</svg>
