<svg width="122" height="37" viewBox="0 0 122 37" fill="none" xmlns="http://www.w3.org/2000/svg">
<g clip-path="url(#clip0_1124_3)">
<path d="M18.2954 0.0296021C8.19135 0.0296021 0 8.29922 0 18.5001C0 28.7014 8.19135 36.9704 18.2954 36.9704C28.4006 36.9704 36.591 28.7014 36.591 18.5001C36.591 8.29988 28.4006 0.0304843 18.2952 0.0304843L18.2954 0.0296021ZM26.6856 26.6694C26.6075 26.7985 26.5049 26.9109 26.3838 27C26.2627 27.0891 26.1253 27.1532 25.9796 27.1886C25.8339 27.2241 25.6827 27.2301 25.5347 27.2065C25.3867 27.1829 25.2447 27.13 25.1169 27.0509C20.8214 24.402 15.4138 23.802 9.04535 25.271C8.75046 25.3387 8.44101 25.2854 8.18502 25.1229C7.92902 24.9603 7.74742 24.7018 7.68012 24.4042C7.64661 24.2568 7.64221 24.1042 7.6672 23.9551C7.69219 23.806 7.74606 23.6633 7.82573 23.5353C7.9054 23.4072 8.00931 23.2963 8.1315 23.2089C8.2537 23.1214 8.39178 23.0591 8.53784 23.0256C15.5071 21.4182 21.4851 22.1103 26.3076 25.0857C26.845 25.4188 27.0154 26.1268 26.6856 26.6694ZM28.9249 21.6401C28.512 22.3176 27.6337 22.5316 26.963 22.1147C22.0452 19.063 14.5488 18.1792 8.73206 19.9618C7.97768 20.1918 7.18092 19.7626 6.95196 19.0023C6.84271 18.6368 6.8815 18.2425 7.05981 17.9058C7.23813 17.5691 7.54142 17.3175 7.90318 17.2063C14.5475 15.1709 22.8077 16.1568 28.4552 19.6605C29.1259 20.0774 29.3378 20.9638 28.9249 21.6401ZM29.1171 16.403C23.2206 12.8671 13.4921 12.542 7.86233 14.267C6.9583 14.5438 6.00227 14.0286 5.7283 13.1159C5.59657 12.6774 5.64273 12.204 5.85663 11.7999C6.07053 11.3958 6.43465 11.0939 6.86894 10.9608C13.3315 8.98011 24.0748 9.36279 30.8636 13.4315C31.0571 13.5471 31.2261 13.7 31.3609 13.8816C31.4958 14.0632 31.5938 14.2699 31.6494 14.4898C31.705 14.7097 31.7171 14.9385 31.685 15.1632C31.6528 15.3878 31.5771 15.6038 31.4622 15.7989C30.9816 16.6198 29.9285 16.8904 29.118 16.403H29.1171ZM49.7757 17.0806C46.6166 16.32 46.0552 15.7863 46.0552 14.6647C46.0552 13.6051 47.0427 12.892 48.513 12.892C49.9374 12.892 51.3487 13.4335 52.83 14.5483C52.8737 14.582 52.9305 14.5955 52.9851 14.5866C53.0125 14.5827 53.0389 14.573 53.0626 14.5584C53.0863 14.5438 53.1067 14.5244 53.1227 14.5015L54.6651 12.3064C54.6956 12.2629 54.7085 12.2093 54.7011 12.1565C54.6938 12.1038 54.6669 12.0558 54.6258 12.0224C52.8627 10.5946 50.879 9.90052 48.5589 9.90052C45.1485 9.90052 42.765 11.967 42.765 14.9237C42.765 18.0943 44.8208 19.2169 48.3732 20.0835C51.3946 20.7865 51.9058 21.3754 51.9058 22.4279C51.9058 23.5947 50.8746 24.3204 49.2143 24.3204C47.3704 24.3204 45.8651 23.6918 44.1829 22.2228C44.1409 22.187 44.087 22.1688 44.0321 22.1721C43.9753 22.1765 43.9251 22.2029 43.8901 22.2448L42.1598 24.3226C42.0877 24.4108 42.0965 24.5387 42.1795 24.6137C44.137 26.3782 46.5445 27.309 49.1444 27.309C52.819 27.309 55.1938 25.282 55.1938 22.1434C55.2004 19.4951 53.6296 18.0283 49.7823 17.0834L49.7757 17.0806ZM63.5088 13.9353C61.9162 13.9353 60.6097 14.5688 59.5305 15.8668V14.4058C59.5307 14.3505 59.5092 14.2975 59.4707 14.2582C59.4322 14.219 59.3798 14.1967 59.3251 14.1965H56.4959C56.3823 14.1965 56.2905 14.2904 56.2905 14.4058V30.6395C56.2905 30.7542 56.3823 30.8491 56.4959 30.8491H59.3251C59.4387 30.8491 59.5305 30.7542 59.5305 30.6395V25.5158C60.6097 26.7355 61.9162 27.3333 63.5088 27.3333C66.4691 27.3333 69.4665 25.0328 69.4665 20.6349C69.4709 16.2362 66.4735 13.9351 63.511 13.9351L63.5088 13.9353ZM66.1763 20.6349C66.1763 22.8735 64.8109 24.4373 62.8534 24.4373C60.9199 24.4373 59.4606 22.8029 59.4606 20.6349C59.4606 18.4668 60.9199 16.8329 62.8534 16.8329C64.7781 16.8326 66.1763 18.4315 66.1763 20.6349ZM77.1458 13.9353C73.3334 13.9353 70.3469 16.8988 70.3469 20.6828C70.3469 24.4262 73.3138 27.3575 77.0999 27.3575C80.9253 27.3575 83.9205 24.4042 83.9205 20.6349C83.9205 16.8785 80.945 13.9357 77.1458 13.9357V13.9353ZM77.1458 24.4593C75.1183 24.4593 73.5891 22.8139 73.5891 20.6338C73.5891 18.4439 75.0659 16.8547 77.0999 16.8547C79.1404 16.8547 80.6784 18.4994 80.6784 20.6817C80.6784 22.8713 79.1928 24.4593 77.1458 24.4593ZM92.0608 14.1965H88.9476V10.9837C88.9477 10.9564 88.9424 10.9293 88.9322 10.904C88.9219 10.8787 88.9068 10.8556 88.8878 10.8362C88.8687 10.8168 88.846 10.8014 88.821 10.7908C88.7961 10.7802 88.7693 10.7747 88.7422 10.7746H85.913C85.7994 10.7746 85.7054 10.8686 85.7054 10.9837V14.1965H84.3466C84.2329 14.1965 84.1412 14.2904 84.1412 14.4058V16.86C84.1412 16.9751 84.2329 17.0693 84.3466 17.0693H85.7054V23.4205C85.7054 25.9856 86.9704 27.287 89.4675 27.287C90.4812 27.287 91.3223 27.0752 92.1154 26.6208C92.1809 26.5856 92.2202 26.515 92.2202 26.44V24.102C92.2202 24.0314 92.1831 23.963 92.1219 23.9255C92.0922 23.9063 92.0579 23.8954 92.0226 23.8939C91.9873 23.8923 91.9522 23.9002 91.9209 23.9167C91.3769 24.1924 90.8504 24.3204 90.2606 24.3204C89.3539 24.3204 88.9476 23.9035 88.9476 22.9727V17.0704H92.0608C92.1744 17.0704 92.2661 16.9764 92.2661 16.8611V14.4071C92.267 14.3797 92.2624 14.3524 92.2526 14.3269C92.2428 14.3013 92.2279 14.2781 92.2089 14.2585C92.1899 14.2389 92.1672 14.2235 92.1421 14.213C92.117 14.2026 92.0901 14.1974 92.0629 14.1978L92.0608 14.1965ZM102.906 14.209V13.8144C102.906 12.6536 103.347 12.1359 104.334 12.1359C104.924 12.1359 105.398 12.2542 105.929 12.4328C105.995 12.4536 106.063 12.4432 106.115 12.4037C106.142 12.3843 106.163 12.3588 106.178 12.3292C106.193 12.2997 106.2 12.267 106.2 12.2339V9.82751C106.201 9.78257 106.187 9.73869 106.16 9.70251C106.134 9.66633 106.096 9.63983 106.054 9.62702C105.495 9.45873 104.778 9.28603 103.703 9.28603C101.092 9.28603 99.7094 10.7713 99.7094 13.5798V14.1841H98.3505C98.2369 14.1841 98.143 14.2781 98.143 14.3932V16.86C98.143 16.9751 98.2369 17.0693 98.3505 17.0693H99.7094V26.8635C99.7094 26.9804 99.8034 27.073 99.917 27.073H102.744C102.86 27.073 102.952 26.9804 102.952 26.8635V17.07H105.593L109.639 26.8635C109.18 27.8913 108.728 28.0964 108.112 28.0964C107.614 28.0964 107.087 27.9464 106.552 27.6487C106.501 27.6228 106.443 27.6173 106.388 27.6332C106.333 27.6531 106.288 27.6928 106.266 27.7457L105.307 29.8698C105.261 29.9712 105.3 30.0881 105.396 30.1411C106.397 30.6881 107.299 30.9219 108.415 30.9219C110.504 30.9219 111.66 29.9381 112.676 27.2958L117.583 14.4949C117.595 14.4632 117.6 14.4289 117.596 14.3949C117.592 14.361 117.58 14.3285 117.561 14.3006C117.542 14.2726 117.517 14.2496 117.488 14.2338C117.459 14.2179 117.426 14.2097 117.392 14.2097H114.447C114.358 14.2097 114.279 14.2664 114.251 14.35L111.234 23.0477L107.93 14.3442C107.916 14.3048 107.889 14.2708 107.855 14.2468C107.821 14.2228 107.78 14.2098 107.738 14.2097H102.906V14.209ZM96.6181 14.1965H93.7889C93.6753 14.1965 93.5813 14.2904 93.5813 14.4058V26.8635C93.5813 26.9804 93.6753 27.073 93.7889 27.073H96.6181C96.7317 27.073 96.8256 26.9804 96.8256 26.8635V14.4067C96.8257 14.3791 96.8203 14.3519 96.8099 14.3264C96.7995 14.301 96.7842 14.2779 96.7649 14.2584C96.7456 14.239 96.7227 14.2236 96.6975 14.2131C96.6723 14.2026 96.6453 14.1972 96.6181 14.1973V14.1965ZM95.2199 8.52376C94.0991 8.52376 93.1903 9.43954 93.1903 10.5708C93.1903 11.7028 94.0991 12.6196 95.2199 12.6196C96.3406 12.6196 97.2473 11.7028 97.2473 10.5708C97.2473 9.43976 96.3384 8.52376 95.2199 8.52376ZM119.999 18.2021C118.88 18.2021 118.009 17.2945 118.009 16.1923C118.009 15.0902 118.891 14.1722 120.01 14.1722C121.128 14.1722 122 15.0796 122 16.1809C122 17.283 121.117 18.2021 119.999 18.2021ZM120.01 14.372C118.989 14.372 118.218 15.1903 118.218 16.1923C118.218 17.1939 118.985 18.0012 119.999 18.0012C121.019 18.0012 121.79 17.1836 121.79 16.1809C121.79 15.1793 121.023 14.372 120.01 14.372ZM120.451 16.3875L121.015 17.1833H120.538L120.032 16.4533H119.597V17.1833H119.199V15.0739H120.13C120.617 15.0739 120.936 15.3246 120.936 15.7468C120.938 16.0926 120.739 16.3039 120.453 16.3875H120.451ZM120.115 15.4358H119.597V16.103H120.115C120.372 16.103 120.528 15.9753 120.528 15.7691C120.528 15.552 120.372 15.4358 120.115 15.4358Z" fill="#272D38"/>
</g>
<defs>
<clipPath id="clip0_1124_3">
<rect width="122" height="37" fill="white"/>
</clipPath>
</defs>
</svg>
