<svg width="89" height="21" viewBox="0 0 89 21" fill="none" xmlns="http://www.w3.org/2000/svg">
<path fill-rule="evenodd" clip-rule="evenodd" d="M71.1689 6.67013C71.4934 7.23173 71.5995 7.87068 71.6345 8.58899L71.6806 9.54641V16.2413L71.7277 17.1997C71.8218 18.765 72.9725 19.9223 74.5447 20.0208L75.495 20.068V9.54641L75.5421 8.58899C75.5812 7.87871 75.6863 7.22771 76.0158 6.6621C76.3515 6.08195 76.8335 5.60062 77.4132 5.26644C77.993 4.93225 78.6503 4.75697 79.3189 4.75819C79.9876 4.75941 80.6442 4.93709 81.2228 5.2734C81.8013 5.6097 82.2815 6.09279 82.6152 6.67415C82.9396 7.23574 83.0408 7.88675 83.0798 8.58899L83.1269 9.5434V16.2413L83.1739 17.1997C83.2721 18.773 84.4137 19.9303 85.991 20.0208L86.9413 20.068V8.58899C86.9413 6.55919 86.1377 4.61248 84.7073 3.17691C83.2769 1.74135 81.3368 0.934451 79.3135 0.933652C78.2305 0.932507 77.1598 1.16322 76.1729 1.61037C75.1859 2.05752 74.3055 2.71082 73.5903 3.52662C72.8748 2.71114 71.9943 2.058 71.0075 1.61072C70.0206 1.16343 68.9501 0.932274 67.8672 0.932648C66.2829 0.932648 64.8129 1.41487 63.5951 2.24772C62.8521 1.41588 61.1897 0.932648 60.2354 0.932648V20.068L61.1897 20.0208C62.786 19.9153 63.9396 18.7891 64.0017 17.1997L64.0528 16.2413V9.54641L64.0998 8.58899C64.1399 7.86666 64.24 7.23173 64.5655 6.66611C64.9015 6.08633 65.3832 5.60512 65.9626 5.27052C66.542 4.93593 67.1987 4.75966 67.8672 4.75931C68.5362 4.75946 69.1934 4.93608 69.7729 5.27146C70.3524 5.60684 70.8339 6.08919 71.1689 6.67013ZM5.87312 20.0218L6.82748 20.068H21.1328L21.0857 19.1136C20.9565 17.5403 19.846 16.391 18.2727 16.2885L17.3184 16.2413H8.73619L20.1784 4.75831L20.1314 3.80491C20.0573 2.21557 18.8996 1.06727 17.3184 0.979866L16.364 0.936666L2.0587 0.932648L2.10577 1.89007C2.23095 3.44826 3.35755 4.62168 4.91776 4.71209L5.87312 4.75931H14.4553L3.01306 16.2423L3.06012 17.1997C3.15426 18.777 4.28887 19.9193 5.87312 20.0208V20.0218ZM56.491 3.73358C57.3768 4.622 58.0794 5.67676 58.5588 6.83764C59.0382 7.99852 59.2849 9.24276 59.2849 10.4993C59.2849 11.7559 59.0382 13.0001 58.5588 14.161C58.0794 15.3219 57.3768 16.3766 56.491 17.265C54.7015 19.0589 52.2752 20.0665 49.7455 20.0665C47.2157 20.0665 44.7894 19.0589 42.9999 17.265C39.2756 13.5288 39.2756 7.46982 42.9999 3.73358C43.8848 2.84545 44.9355 2.1409 46.0919 1.66014C47.2482 1.17938 48.4877 0.931839 49.7394 0.931643C50.9932 0.93077 52.2349 1.17788 53.3934 1.65883C54.5519 2.13979 55.6045 2.84515 56.491 3.73458V3.73358ZM53.7922 6.44308C54.8649 7.52008 55.4675 8.9803 55.4675 10.5028C55.4675 12.0253 54.8649 13.4856 53.7922 14.5626C52.7187 15.6387 51.2631 16.2433 49.7455 16.2433C48.2278 16.2433 46.7722 15.6387 45.6987 14.5626C44.626 13.4856 44.0234 12.0253 44.0234 10.5028C44.0234 8.9803 44.626 7.52008 45.6987 6.44308C46.7722 5.36691 48.2278 4.76238 49.7455 4.76238C51.2631 4.76238 52.7187 5.36691 53.7922 6.44308ZM29.723 0.931643C30.9748 0.931971 32.2143 1.17967 33.3707 1.6606C34.5271 2.14154 35.5777 2.84628 36.4626 3.73458C40.1879 7.46982 40.1879 13.5298 36.4626 17.265C34.673 19.0589 32.2468 20.0665 29.717 20.0665C27.1872 20.0665 24.761 19.0589 22.9714 17.265C19.2471 13.5288 19.2471 7.46982 22.9714 3.73358C23.8564 2.84545 24.907 2.1409 26.0634 1.66014C27.2198 1.17938 28.4592 0.931839 29.711 0.931643H29.723ZM33.7637 6.44108C34.8368 7.51811 35.4396 8.97855 35.4396 10.5013C35.4396 12.0241 34.8368 13.4845 33.7637 14.5616C32.6902 15.6377 31.2346 16.2423 29.717 16.2423C28.1993 16.2423 26.7438 15.6377 25.6702 14.5616C24.5975 13.4846 23.9949 12.0243 23.9949 10.5018C23.9949 8.9793 24.5975 7.51907 25.6702 6.44208C26.7438 5.3659 28.1993 4.76138 29.717 4.76138C31.2346 4.76138 32.6902 5.3649 33.7637 6.44108Z" fill="#272D38"/>
</svg>
